<svg width="42" height="30" viewBox="0 0 42 30" fill="none" xmlns="http://www.w3.org/2000/svg">
<path d="M40.9506 28.392C40.9507 28.0134 40.9502 27.6347 40.9495 27.2561C40.9495 27.2551 40.9495 27.2543 40.9495 27.2533C40.9471 25.8322 40.942 24.4112 40.9516 22.9903C40.9703 20.1979 41.0093 17.4057 41.0268 14.6132C41.0271 14.5597 41.0275 14.5062 41.0278 14.4527C41.0281 14.4005 41.0285 14.3483 41.0288 14.2961C41.0324 13.6635 40.9895 13.0295 40.9322 12.3968C40.8891 11.921 40.6995 11.7948 39.9479 11.7133C39.6174 11.6774 39.2833 11.6463 38.9489 11.6253C38.7501 11.6128 38.5513 11.6039 38.3528 11.5997C38.3523 11.5997 38.3517 11.5997 38.3512 11.5997C38.1444 11.5954 37.9378 11.5913 37.7311 11.5874C37.6925 11.5867 37.6538 11.5859 37.6152 11.5852C37.4137 11.5814 37.2124 11.5778 37.0109 11.5743C36.9809 11.5737 36.9508 11.5732 36.9209 11.5727C35.1647 11.5421 33.4085 11.5196 31.6526 11.4826C28.7914 11.4222 25.9304 11.344 23.0693 11.2799C21.1615 11.2371 19.2534 11.2029 17.3455 11.1694C16.6946 11.1579 16.0433 11.1712 15.3929 11.1535C14.0207 11.1161 12.6488 11.0681 11.2771 11.0201C10.138 10.9802 8.9996 10.9221 7.8602 10.8938C7.68922 10.8897 7.51833 10.8856 7.34735 10.8818C7.34725 10.8818 7.34715 10.8818 7.34705 10.8818C7.08839 10.8761 6.82973 10.8709 6.57097 10.8664C6.56065 10.8662 6.55042 10.866 6.54009 10.8658C6.41786 10.8637 6.29573 10.8618 6.1735 10.86C6.1593 10.8598 6.14501 10.8596 6.13081 10.8594C6.00758 10.8577 5.88426 10.8561 5.76104 10.8548C5.75597 10.8547 5.75081 10.8547 5.74575 10.8546C5.62491 10.8532 5.50416 10.8522 5.38332 10.8513C5.37181 10.8512 5.36029 10.8511 5.34887 10.851C5.23111 10.8502 5.11335 10.8496 4.99558 10.8492C4.97473 10.8491 4.95388 10.849 4.93303 10.849C4.81715 10.8488 4.70138 10.8486 4.5855 10.8487C4.56683 10.8487 4.54827 10.8488 4.5296 10.8488C4.40866 10.8489 4.28782 10.8493 4.16698 10.8501C3.9389 10.8514 3.71033 10.8719 3.48324 10.901C3.25616 10.9301 3.03066 10.9679 2.80864 11.004C2.66625 11.0271 2.54512 11.0627 2.44652 11.1106C2.43758 11.115 2.42874 11.1195 2.4202 11.1241C2.37731 11.147 2.33898 11.1723 2.30552 11.2004C2.29887 11.206 2.29231 11.2116 2.28606 11.2174C2.26084 11.2406 2.2387 11.2655 2.21973 11.292C2.20553 11.3119 2.19302 11.3327 2.1824 11.3544C2.15747 11.4051 2.14238 11.461 2.13742 11.5218C2.13255 11.5814 2.12659 11.6411 2.12004 11.7007C2.10683 11.8199 2.09075 11.9389 2.07437 12.0579C2.06612 12.1174 2.05788 12.1769 2.04984 12.2365C2.0418 12.296 2.03395 12.3555 2.02661 12.4151C2.00466 12.5936 1.98748 12.7723 1.98351 12.9513C1.98172 13.0302 1.98033 13.1089 1.97904 13.1878C1.97875 13.2071 1.97855 13.2265 1.97825 13.2458C1.97736 13.3071 1.97646 13.3685 1.97587 13.4298C1.97567 13.4469 1.97557 13.4639 1.97537 13.4809C1.97467 13.547 1.97418 13.6131 1.97378 13.6792C1.97368 13.6892 1.97368 13.6992 1.97358 13.7091C1.96812 14.6241 1.98242 15.5397 1.96246 16.4544C1.89981 19.3298 1.82822 22.205 1.75742 25.0802V25.0821C1.73607 25.9477 1.71482 26.8133 1.69397 27.6787C1.69248 27.7403 1.69367 27.798 1.69794 27.8519C1.69933 27.8699 1.70112 27.8874 1.70331 27.9046C1.70966 27.9561 1.71929 28.0039 1.7325 28.0485C1.7457 28.093 1.76248 28.1342 1.78334 28.1722C1.79029 28.1849 1.79763 28.1973 1.80548 28.2093C1.80935 28.2153 1.81342 28.2212 1.81759 28.2271C1.82593 28.2388 1.83467 28.2502 1.84391 28.2612C1.87627 28.3 1.9145 28.3348 1.95918 28.3662C1.97835 28.3797 1.9987 28.3925 2.02035 28.4047C2.042 28.4169 2.06483 28.4287 2.08896 28.4397C2.12113 28.4545 2.15559 28.4682 2.19252 28.4811C2.20176 28.4843 2.21109 28.4875 2.22062 28.4905C2.4206 28.5557 2.6878 28.5962 3.0388 28.6237C3.07346 28.6265 3.10831 28.628 3.14316 28.6292C3.17811 28.6304 3.21306 28.6312 3.24792 28.6324C3.2495 28.6325 3.25099 28.6325 3.25258 28.6326C3.38504 28.6373 3.5175 28.642 3.64996 28.6468C3.69613 28.6485 3.7422 28.6501 3.78837 28.6518C3.87575 28.655 3.96313 28.6582 4.05051 28.6615C4.107 28.6636 4.1634 28.6657 4.2199 28.6678C4.27779 28.67 4.33568 28.6721 4.39357 28.6743C5.19794 28.7043 6.00222 28.7352 6.8066 28.763H6.8068C7.4111 28.784 8.0154 28.8032 8.6198 28.819C12.6446 28.9243 16.6698 29.0151 20.6949 29.1118C20.6949 29.1102 20.695 29.1087 20.695 29.1071C22.1145 29.1412 23.5339 29.187 24.9534 29.2071C28.3892 29.2558 31.8249 29.2995 35.2607 29.3392C35.2622 29.3392 35.2636 29.3392 35.2651 29.3393C35.8996 29.3467 36.5341 29.3539 37.1686 29.361C37.3893 29.3635 37.6101 29.3646 37.831 29.3645C37.9414 29.3645 38.0518 29.3641 38.1622 29.3635C38.7143 29.3603 39.2661 29.3499 39.8167 29.3344C39.8313 29.334 39.8458 29.3334 39.8602 29.3328C39.8639 29.3328 39.8675 29.3326 39.8712 29.3324C39.8845 29.3318 39.8976 29.3312 39.9106 29.3306C39.9117 29.3305 39.9128 29.3305 39.9139 29.3304C39.9279 29.3296 39.9417 29.3287 39.9554 29.3279C39.9585 29.3277 39.9616 29.3275 39.9648 29.3272C39.9772 29.3264 39.9894 29.3255 40.0015 29.3245C40.0029 29.3244 40.0043 29.3243 40.0057 29.3242C40.0192 29.323 40.0326 29.3219 40.0458 29.3205C40.0481 29.3204 40.0504 29.3201 40.0528 29.3199C40.0648 29.3186 40.0768 29.3174 40.0885 29.3161C40.0898 29.316 40.091 29.3158 40.0923 29.3157C40.1055 29.3142 40.1184 29.3125 40.1312 29.3109C40.1325 29.3107 40.1338 29.3105 40.1351 29.3104C40.1472 29.3088 40.1591 29.3071 40.1709 29.3054C40.1718 29.3053 40.1728 29.3051 40.1737 29.305C40.1865 29.3031 40.1992 29.301 40.2117 29.2989C40.2119 29.2989 40.212 29.2988 40.2122 29.2988C40.2245 29.2967 40.2367 29.2945 40.2487 29.2922C40.2493 29.2921 40.2499 29.292 40.2505 29.2919C40.2749 29.2872 40.2986 29.282 40.3216 29.2766C40.3219 29.2765 40.3222 29.2765 40.3225 29.2764C40.3456 29.2709 40.368 29.265 40.3897 29.2586C40.3898 29.2586 40.3899 29.2585 40.39 29.2585C40.7135 29.1639 40.8758 28.9795 40.9335 28.6869C40.9522 28.5897 40.9506 28.4904 40.9506 28.392Z" fill="#66CC99"/>
<path d="M35.5304 26.4217C35.7632 26.0182 36.0753 25.6865 36.4726 25.4271C36.8664 25.17 37.2994 25.0039 37.7709 24.9571C38.0891 24.9254 38.4127 24.926 38.733 24.9368C38.7979 24.939 38.8619 24.944 38.9254 24.9516C38.9222 24.1446 38.9201 23.3377 38.9243 22.5309C38.9351 20.4259 38.9609 18.3211 38.9735 16.2161C38.722 16.2151 38.471 16.1983 38.222 16.1521C37.6422 16.0446 37.148 15.7799 36.711 15.4032C36.2515 15.0071 35.9063 14.5375 35.7078 13.9764C35.6018 13.6766 35.5426 13.3802 35.5317 13.0874C33.8829 13.0572 32.234 13.0351 30.5853 12.9999C28.0256 12.9454 25.4661 12.8761 22.9065 12.8183C21.1998 12.7798 19.4929 12.7485 17.7859 12.7176C17.2037 12.7071 16.621 12.7171 16.0392 12.7013C14.8116 12.6682 13.5842 12.6263 12.3571 12.5843C11.338 12.5495 10.3195 12.4996 9.30022 12.4744C8.66434 12.4587 8.02797 12.4459 7.39189 12.4385C7.37631 12.6014 7.34523 12.7648 7.29905 12.9282C7.24752 13.1104 7.18149 13.2889 7.12211 13.4691C6.87934 13.9622 6.59606 14.4246 6.15758 14.782C5.72277 15.1362 5.22193 15.3439 4.6496 15.3715C4.44605 15.3814 4.2424 15.3856 4.03925 15.3773C4.04123 15.9392 4.046 16.5011 4.03398 17.0627C3.98374 19.4081 3.92566 21.7535 3.86816 24.0987C3.91056 24.0997 3.95286 24.1009 3.99516 24.1023C4.42609 24.1167 4.82565 24.2565 5.20922 24.4382C5.35131 24.5055 5.48993 24.5797 5.63023 24.6505C5.87916 24.7759 6.10386 24.9319 6.28269 25.142C6.35011 25.2212 6.41355 25.3057 6.46419 25.3955C6.59874 25.6339 6.75205 25.8669 6.84935 26.1194C6.98598 26.4736 7.03742 26.8355 7.01051 27.1999C8.01059 27.2364 9.01068 27.272 10.0111 27.298C13.6117 27.3917 17.2127 27.4732 20.8137 27.5597C20.8137 27.5585 20.8138 27.5571 20.8138 27.5559C22.0837 27.5864 23.3535 27.6266 24.6234 27.6455C28.1303 27.6979 31.6371 27.7448 35.1439 27.7876C35.1471 27.3224 35.2736 26.8666 35.5304 26.4217Z" fill="#339966"/>
<path d="M11.1274 20.4529C11.0055 20.7006 10.8632 20.933 10.6429 21.1125C10.4244 21.2905 10.1728 21.3948 9.88527 21.4087C9.68957 21.4181 9.49346 21.4176 9.29984 21.3816C9.00851 21.3277 8.76028 21.1947 8.54084 21.0054C8.30998 20.8064 8.13661 20.5706 8.03682 20.2887C7.89146 19.8779 7.92075 19.4795 8.14158 19.097C8.25855 18.8943 8.41533 18.7277 8.61491 18.5974C8.81271 18.4682 9.03026 18.3848 9.26707 18.3612C9.42693 18.3453 9.58948 18.3456 9.75043 18.351C9.96689 18.3583 10.1677 18.4285 10.3604 18.5198C10.4318 18.5536 10.5014 18.5909 10.5719 18.6264C10.697 18.6895 10.8098 18.7678 10.8997 18.8734C10.9335 18.9131 10.9654 18.9556 10.9908 19.0007C11.0584 19.1205 11.1354 19.2376 11.1843 19.3644C11.2872 19.631 11.2941 19.9063 11.2163 20.1814C11.1905 20.2727 11.1573 20.3624 11.1274 20.4529Z" fill="#66CC99"/>
<path d="M34.8766 21.0232C34.7546 21.2709 34.6123 21.5033 34.392 21.6828C34.1736 21.8608 33.922 21.9651 33.6344 21.979C33.4387 21.9884 33.2426 21.9879 33.0489 21.9519C32.7576 21.898 32.5093 21.765 32.2899 21.5757C32.059 21.3768 31.8856 21.1409 31.7858 20.859C31.6405 20.4483 31.6698 20.0498 31.8906 19.6673C32.0076 19.4647 32.1644 19.298 32.3639 19.1677C32.5617 19.0385 32.7793 18.9551 33.0161 18.9315C33.176 18.9156 33.3385 18.9159 33.4995 18.9213C33.7159 18.9286 33.9167 18.9988 34.1094 19.0901C34.1808 19.1239 34.2504 19.1612 34.3209 19.1968C34.446 19.2598 34.5588 19.3381 34.6487 19.4437C34.6825 19.4834 34.7144 19.526 34.7398 19.5711C34.8075 19.6908 34.8844 19.8079 34.9334 19.9347C35.0362 20.2013 35.0431 20.4766 34.9653 20.7517C34.9396 20.8431 34.9064 20.9327 34.8766 21.0232Z" fill="#66CC99"/>
<path d="M27.5386 22.523C27.0991 23.5362 26.392 24.4473 25.4451 25.1213C23.1476 26.7567 19.7918 26.7584 17.5165 25.0819C17.4511 25.0334 17.3864 24.9838 17.3227 24.9332C13.9761 22.2627 14.0086 16.7744 18.0471 14.7312C20.6683 13.4051 24.3508 13.87 26.4178 15.9449C28.1945 17.7286 28.4771 20.3589 27.5386 22.523Z" fill="#66CC99"/>
<path d="M21.9549 23.8711C21.9493 24.0855 21.9443 24.3263 21.9363 24.567C21.9297 24.7646 21.9023 24.7968 21.693 24.7916C21.4126 24.7846 21.1324 24.7663 20.8527 24.7462C20.6864 24.7343 20.6445 24.6853 20.6464 24.5186C20.6489 24.2985 20.6571 24.0783 20.663 23.8461C20.5655 23.8208 20.4848 23.7978 20.403 23.7791C19.7568 23.6304 19.2847 23.2631 18.9528 22.7183C18.8081 22.4809 18.7659 22.2121 18.7006 21.9513C18.6675 21.8194 18.7239 21.7449 18.864 21.7032C18.9316 21.6831 19.005 21.6715 19.0756 21.6725C19.3489 21.6761 19.6221 21.6875 19.8953 21.6934C20.0225 21.6961 20.0845 21.7597 20.1245 21.8724C20.1846 22.0415 20.2529 22.2092 20.3341 22.37C20.483 22.6649 20.7577 22.7966 21.0774 22.8387C21.434 22.8856 21.7953 22.8449 22.1091 22.6862C22.8597 22.3069 22.9523 21.6029 22.3833 21.0234C22.139 20.7747 21.8062 20.6423 21.4769 20.5163C20.8825 20.2889 20.2829 20.0684 19.7483 19.7239C19.553 19.598 19.3694 19.4472 19.2088 19.2824C18.8431 18.9068 18.7643 18.4542 18.9062 17.9698C19.1328 17.1968 19.6653 16.7207 20.4753 16.5289C20.5795 16.5042 20.6856 16.4866 20.8134 16.4612C20.8201 16.3559 20.829 16.2483 20.8333 16.1406C20.8388 16.0095 20.8393 15.8781 20.8442 15.747C20.8495 15.6024 20.888 15.5463 21.0278 15.5442C21.3292 15.5396 21.631 15.549 21.9325 15.5565C22.0519 15.5594 22.1163 15.6329 22.1327 15.7388C22.1506 15.8545 22.1613 15.972 22.1644 16.0889C22.1678 16.2193 22.1591 16.3499 22.1555 16.4877C22.2581 16.5189 22.3381 16.5443 22.4189 16.5675C23.3755 16.8433 23.7485 17.5232 23.9905 18.3859C24.0268 18.5156 23.9705 18.5997 23.8345 18.6377C23.7601 18.6585 23.6787 18.6659 23.6009 18.6639C23.4141 18.659 23.2275 18.641 23.0405 18.6359C22.8861 18.6316 22.7935 18.573 22.7351 18.4264C22.6796 18.2871 22.5886 18.1591 22.5018 18.0334C22.0958 17.4464 21.0711 17.5125 20.6307 17.9732C20.4125 18.2013 20.3916 18.5446 20.592 18.7901C20.7281 18.9569 20.9031 19.079 21.1094 19.151C21.3386 19.231 21.5739 19.295 21.805 19.3702C22.118 19.4719 22.4356 19.5632 22.7405 19.6841C23.6197 20.0329 24.2325 20.9176 24.1814 21.7834C24.1589 22.1652 24.0408 22.517 23.7968 22.8213C23.5476 23.1322 23.244 23.3847 22.8623 23.5361C22.5782 23.6487 22.2883 23.7486 21.9549 23.8711Z" fill="white"/>
<path d="M40.9336 21.4028C40.559 17.4923 41.335 15.9866 40.6246 12.2081C40.5393 11.8718 39.5998 11.5832 38.8354 11.5978C38.2989 11.608 37.7546 11.6275 37.2181 11.6711C26.7846 12.5204 16.3547 13.4197 5.91269 14.1608C4.61562 14.2828 1.88624 11.9178 1.625 10.7185C0.678134 6.37277 0.719638 14.6937 0.689453 16.1609C1.04234 19.0537 1.26774 21.9583 1.52531 24.8602C1.57982 25.482 1.63433 26.1038 1.68924 26.7255C1.69182 26.9857 1.88108 27.1902 2.15403 27.2316C2.62449 27.3303 3.33871 27.2549 3.88502 27.2188C4.90208 27.1476 5.91925 27.0785 6.93621 27.006C11.6128 26.6614 16.2861 26.2755 20.9611 25.9101C20.961 25.909 20.9609 25.908 20.9608 25.9068C25.864 25.5362 30.76 25.086 35.6582 24.662C37.1892 24.528 38.7234 24.3998 40.2486 24.2171C40.7375 24.1827 41.2009 24.0594 40.9336 21.4028Z" fill="#2B8958"/>
<path d="M40.7332 22.5579C40.6911 22.1815 40.6485 21.8051 40.6058 21.4287C40.6057 21.4277 40.6056 21.4269 40.6055 21.4259C40.445 20.0132 40.282 18.6008 40.1333 17.1871C39.8413 14.4087 39.5695 11.6285 39.2762 8.85018C39.2706 8.79699 39.265 8.74369 39.2594 8.69049C39.2539 8.63853 39.2484 8.58657 39.2429 8.53471C39.1761 7.90539 39.0629 7.27949 38.9356 6.65627C38.8397 6.18759 38.6372 6.08148 37.8809 6.07757C37.5481 6.07585 37.2126 6.0791 36.8778 6.09254C36.6788 6.10055 36.48 6.11208 36.2822 6.12829C36.2817 6.12829 36.2812 6.12839 36.2807 6.12839C36.0746 6.14526 35.8687 6.16242 35.6627 6.17977C35.6242 6.18301 35.5858 6.18625 35.5473 6.1895C35.3466 6.20637 35.1459 6.22344 34.9453 6.2405C34.9154 6.24308 34.8855 6.24565 34.8555 6.24823C33.106 6.39791 31.3574 6.55559 29.6073 6.69879C26.7557 6.93218 23.9025 7.14793 21.0505 7.3775C19.1488 7.53061 17.248 7.6924 15.3472 7.85467C14.6988 7.91006 14.0527 7.99005 13.404 8.03914C12.0355 8.14278 10.6662 8.23573 9.29693 8.32869C8.15991 8.40581 7.02151 8.46483 5.8856 8.55359C5.71521 8.56694 5.54472 8.58047 5.37433 8.5942C5.37423 8.5942 5.37413 8.5942 5.37404 8.5942C5.11617 8.61499 4.8584 8.63634 4.60064 8.65846C4.59041 8.65932 4.58018 8.66018 4.56986 8.66113C4.44812 8.67162 4.32639 8.6822 4.20475 8.69297C4.19056 8.69421 4.17636 8.69545 4.16226 8.69679C4.03953 8.70775 3.9168 8.71881 3.79408 8.73006C3.78901 8.73054 3.78395 8.73101 3.77888 8.73149C3.65864 8.74255 3.5384 8.75389 3.41815 8.76543C3.40673 8.76648 3.39521 8.76762 3.3838 8.76867C3.26663 8.77992 3.14946 8.79146 3.0323 8.80309C3.01154 8.80518 2.99079 8.80719 2.97004 8.80928C2.85486 8.82082 2.73968 8.83255 2.6245 8.84456C2.60593 8.84647 2.58746 8.84847 2.56899 8.85037C2.44885 8.86296 2.3286 8.87574 2.20856 8.88889C1.98197 8.91358 1.75697 8.95734 1.53435 9.00959C1.31184 9.06183 1.0918 9.12247 0.875142 9.1811C0.736131 9.21876 0.61966 9.26652 0.527019 9.3243C0.518579 9.32954 0.510338 9.33488 0.502295 9.34032C0.462181 9.36739 0.426931 9.39666 0.396845 9.42784C0.390789 9.43413 0.385029 9.44042 0.37937 9.44681C0.35683 9.47245 0.337667 9.49943 0.32168 9.52775C0.309765 9.54901 0.299637 9.57094 0.291495 9.59372C0.272431 9.64673 0.263593 9.70374 0.265381 9.76485C0.267168 9.82463 0.267962 9.8845 0.267962 9.94438C0.268062 10.0642 0.265381 10.1842 0.262303 10.3043C0.260813 10.3643 0.259125 10.4243 0.257735 10.4843C0.256345 10.5442 0.255153 10.6042 0.254458 10.6642C0.252472 10.844 0.255352 11.0234 0.271239 11.2018C0.278289 11.2803 0.285537 11.3588 0.293084 11.4374C0.29497 11.4566 0.296857 11.4759 0.298744 11.4951C0.304701 11.5563 0.310659 11.6173 0.316815 11.6784C0.318503 11.6953 0.32029 11.7123 0.321978 11.7292C0.328631 11.795 0.335482 11.8608 0.342433 11.9264C0.343426 11.9364 0.344518 11.9462 0.34561 11.9561C0.442024 12.8665 0.557999 13.7753 0.639916 14.6869C0.897484 17.5522 1.14621 20.4183 1.39564 23.2842C1.39574 23.2849 1.39574 23.2856 1.39584 23.2861C1.4709 24.1489 1.54607 25.0117 1.62163 25.8745C1.62699 25.9359 1.63464 25.9931 1.64487 26.0463C1.64824 26.064 1.65202 26.0813 1.65599 26.0981C1.6681 26.1487 1.683 26.1953 1.70107 26.2382C1.71914 26.2811 1.74049 26.3203 1.76541 26.356C1.77375 26.3679 1.78239 26.3795 1.79152 26.3906C1.79609 26.3962 1.80076 26.4017 1.80552 26.4071C1.81506 26.4179 1.82508 26.4283 1.83551 26.4384C1.87195 26.4736 1.91385 26.5043 1.96181 26.531C1.98237 26.5424 2.00401 26.5531 2.02685 26.563C2.04969 26.5729 2.07372 26.5822 2.09894 26.5907C2.1326 26.6021 2.16834 26.6123 2.20647 26.6213C2.216 26.6236 2.22563 26.6257 2.23546 26.6279C2.4416 26.6722 2.71168 26.685 3.06377 26.6763C3.09852 26.6755 3.13338 26.6735 3.16823 26.6711C3.20308 26.6687 3.23793 26.666 3.27278 26.6636C3.27437 26.6635 3.27586 26.6634 3.27745 26.6633C3.40961 26.6543 3.54187 26.6455 3.67413 26.6367C3.7202 26.6336 3.76627 26.6306 3.81235 26.6275C3.89953 26.6217 3.9868 26.616 4.07398 26.6102C4.13038 26.6065 4.18668 26.6028 4.24308 26.599C4.30087 26.5952 4.35866 26.5915 4.41645 26.5877C5.21953 26.5351 6.02262 26.4833 6.82551 26.4285H6.82571C7.42882 26.3873 8.03183 26.3445 8.63454 26.2982C12.648 25.9903 16.6603 25.6676 20.6732 25.351C20.6731 25.3494 20.6729 25.3479 20.6728 25.3464C22.0879 25.2347 23.5044 25.1347 24.9179 25.0092C28.3395 24.7052 31.7604 24.3963 35.1809 24.0835C35.1824 24.0834 35.1839 24.0833 35.1853 24.0832C35.8171 24.0254 36.4487 23.9675 37.0804 23.9095C37.3001 23.8892 37.5198 23.8677 37.7394 23.845C37.8492 23.8337 37.9589 23.8219 38.0686 23.81C38.6171 23.7502 39.1646 23.6833 39.7104 23.6114C39.7249 23.6095 39.7392 23.6075 39.7534 23.6055C39.757 23.605 39.7606 23.6045 39.7642 23.604C39.7773 23.6021 39.7903 23.6001 39.8031 23.5981C39.8042 23.5979 39.8053 23.5978 39.8063 23.5976C39.8201 23.5954 39.8338 23.5931 39.8473 23.5908C39.8504 23.5903 39.8534 23.5898 39.8565 23.5892C39.8687 23.5871 39.8808 23.5849 39.8927 23.5827C39.894 23.5825 39.8953 23.5823 39.8967 23.582C39.91 23.5795 39.9232 23.5769 39.9361 23.5742C39.9384 23.5738 39.9407 23.5733 39.9429 23.5728C39.9547 23.5704 39.9664 23.568 39.978 23.5654C39.9792 23.5651 39.9805 23.5648 39.9817 23.5646C39.9946 23.5618 40.0073 23.5588 40.02 23.5558C40.0212 23.5556 40.0224 23.5553 40.0237 23.5549C40.0355 23.552 40.0473 23.5492 40.0588 23.5462C40.0597 23.546 40.0606 23.5457 40.0615 23.5456C40.074 23.5423 40.0864 23.539 40.0986 23.5355C40.0988 23.5355 40.0989 23.5354 40.0991 23.5354C40.1111 23.5321 40.1229 23.5287 40.1345 23.5252C40.1351 23.525 40.1357 23.5248 40.1363 23.5246C40.1601 23.5174 40.1831 23.5099 40.2053 23.5021C40.2056 23.502 40.2059 23.5019 40.2062 23.5018C40.2287 23.4939 40.2502 23.4857 40.2711 23.4772C40.2712 23.4772 40.2713 23.4771 40.2714 23.4771C40.5824 23.3498 40.7234 23.1499 40.7482 22.8531C40.7566 22.7543 40.7441 22.6559 40.7332 22.5579Z" fill="#66CC99"/>
<path d="M35.1255 21.1538C35.3122 20.7287 35.5856 20.3669 35.9518 20.0682C36.3147 19.7722 36.7267 19.5627 37.1903 19.4677C37.5032 19.4036 37.825 19.371 38.1448 19.3488C38.2094 19.3443 38.2737 19.3428 38.3376 19.3438C38.2446 18.5418 38.1529 17.7397 38.0672 16.9371C37.8438 14.843 37.6353 12.7475 37.4138 10.6532C37.1635 10.6779 36.9121 10.687 36.6594 10.6667C36.071 10.6193 35.5502 10.4067 35.0738 10.077C34.5729 9.73028 34.1775 9.29888 33.9176 8.76127C33.7788 8.47411 33.6871 8.18553 33.6436 7.89551C32.0009 8.03451 30.3588 8.18171 28.7157 8.31576C26.1646 8.52398 23.6121 8.71761 21.0607 8.92268C19.3594 9.05939 17.6588 9.20335 15.9583 9.34769C15.3782 9.39698 14.8 9.46658 14.2197 9.51063C12.9954 9.60358 11.7705 9.68776 10.5456 9.77195C9.52844 9.84183 8.51029 9.89665 7.49402 9.97616C6.86003 10.0257 6.22594 10.0783 5.59265 10.1361C5.59523 10.2997 5.58252 10.4654 5.55482 10.6326C5.52384 10.819 5.47806 11.0032 5.43904 11.1885C5.25247 11.7037 5.0223 12.1926 4.62602 12.5928C4.23312 12.9897 3.7583 13.2475 3.19222 13.3337C2.99096 13.3643 2.78889 13.3894 2.58594 13.402C2.65038 13.9605 2.7177 14.5187 2.76824 15.0784C2.97914 17.4156 3.18229 19.7533 3.38604 22.091C3.42834 22.0877 3.47054 22.0845 3.51274 22.0816C3.94278 22.0517 4.35565 22.1497 4.75729 22.2909C4.90613 22.3433 5.05209 22.403 5.19954 22.4588C5.46098 22.558 5.70177 22.69 5.90294 22.8805C5.9788 22.9524 6.05128 23.0299 6.11165 23.114C6.27191 23.3373 6.45034 23.5532 6.57516 23.7942C6.75041 24.1325 6.84176 24.487 6.85556 24.8521C7.85396 24.7858 8.85226 24.7186 9.84986 24.6419C13.4403 24.3658 17.0299 24.0776 20.6197 23.7942C20.6196 23.793 20.6195 23.7917 20.6194 23.7904C21.8854 23.6905 23.1525 23.6002 24.4172 23.4889C27.9099 23.1813 31.4018 22.8682 34.8933 22.5511C34.8446 22.0886 34.9196 21.6225 35.1255 21.1538Z" fill="#339966"/>
<path d="M10.1977 17.7218C10.1039 17.9806 9.98834 18.2262 9.78926 18.4273C9.59186 18.6267 9.35336 18.7562 9.06898 18.7995C8.87546 18.829 8.68045 18.8484 8.48384 18.8326C8.18825 18.8088 7.92661 18.702 7.68731 18.5364C7.4357 18.3622 7.23701 18.1454 7.10644 17.8754C6.9163 17.4819 6.9011 17.0829 7.07805 16.6799C7.17178 16.4663 7.3092 16.2846 7.49309 16.1345C7.6754 15.9858 7.88242 15.8805 8.11527 15.8329C8.27245 15.8007 8.4341 15.7843 8.59476 15.7732C8.81082 15.7582 9.01824 15.8074 9.22001 15.8784C9.29478 15.9047 9.36815 15.9346 9.44222 15.9627C9.57359 16.0125 9.69453 16.0789 9.79561 16.1746C9.83374 16.2107 9.87018 16.2496 9.90047 16.2918C9.98099 16.404 10.0706 16.5125 10.1333 16.6335C10.2652 16.8881 10.3026 17.161 10.2559 17.4426C10.2402 17.5363 10.2172 17.6288 10.1977 17.7218Z" fill="#66CC99"/>
<path d="M33.8764 15.8536C33.7827 16.1125 33.6671 16.3581 33.468 16.5591C33.2706 16.7585 33.0321 16.8881 32.7477 16.9313C32.5542 16.9608 32.3592 16.9802 32.1626 16.9644C31.867 16.9406 31.6054 16.8338 31.3661 16.6682C31.1144 16.494 30.9158 16.2772 30.7852 16.0072C30.5949 15.6138 30.5799 15.2147 30.7568 14.8117C30.8505 14.5981 30.9879 14.4164 31.1718 14.2664C31.3541 14.1176 31.5612 14.0124 31.794 13.9647C31.9512 13.9325 32.1128 13.9161 32.2735 13.905C32.4896 13.8901 32.697 13.9393 32.8988 14.0102C32.9735 14.0365 33.0469 14.0664 33.121 14.0946C33.2523 14.1443 33.3733 14.2107 33.4744 14.3064C33.5125 14.3425 33.5489 14.3814 33.5792 14.4237C33.6597 14.5358 33.7493 14.6444 33.8121 14.7654C33.9439 15.0199 33.9814 15.2929 33.9347 15.5744C33.919 15.668 33.8961 15.7606 33.8764 15.8536Z" fill="#66CC99"/>
<path d="M26.7453 18.0961C26.4211 19.1487 25.8193 20.127 24.9528 20.8943C22.8504 22.756 19.514 23.1018 17.0653 21.6683C16.9948 21.6268 16.925 21.5842 16.8559 21.5404C13.2314 19.2284 12.6531 13.7681 16.4413 11.3225C18.8999 9.73519 22.6131 9.81976 24.899 11.6707C26.864 13.2619 27.4377 15.8483 26.7453 18.0961Z" fill="#66CC99"/>
<path d="M21.3454 20.0098C21.3636 20.2236 21.3855 20.4636 21.4044 20.7037C21.4198 20.9008 21.3961 20.9356 21.1874 20.9519C20.9079 20.9737 20.6272 20.9842 20.3468 20.993C20.1801 20.9981 20.133 20.9537 20.1163 20.7879C20.0944 20.5687 20.078 20.3491 20.0581 20.1176C19.9583 20.1024 19.8755 20.0879 19.7921 20.0776C19.133 19.9961 18.6228 19.6793 18.2322 19.1716C18.062 18.9504 17.9901 18.6874 17.8961 18.435C17.8486 18.3072 17.8964 18.2273 18.0311 18.1714C18.096 18.1446 18.1678 18.1255 18.238 18.1192C18.51 18.0947 18.7829 18.0781 19.0553 18.0559C19.1821 18.0456 19.2508 18.1025 19.303 18.2103C19.3815 18.3723 19.4681 18.5321 19.5667 18.6835C19.7476 18.9615 20.0354 19.0642 20.358 19.0732C20.7177 19.0834 21.0724 19.0057 21.3668 18.8159C22.0709 18.3617 22.0847 17.6523 21.4546 17.1346C21.1841 16.9123 20.8384 16.8148 20.4969 16.7233C19.8806 16.5581 19.2599 16.4004 18.6901 16.1126C18.482 16.0076 18.2826 15.8765 18.1046 15.729C17.6992 15.3931 17.5705 14.9511 17.6578 14.4549C17.7971 13.6631 18.2736 13.1352 19.0576 12.8613C19.1584 12.826 19.262 12.7977 19.3862 12.7593C19.3811 12.654 19.378 12.546 19.3704 12.4385C19.3612 12.3076 19.3472 12.177 19.3374 12.0461C19.3266 11.9017 19.3587 11.842 19.4973 11.8256C19.7966 11.7901 20.0976 11.7686 20.3983 11.745C20.5174 11.7357 20.5896 11.8022 20.6177 11.9058C20.6483 12.019 20.6721 12.1347 20.6881 12.2507C20.706 12.3799 20.712 12.5107 20.7237 12.6481C20.8291 12.6685 20.9116 12.6856 20.9944 12.7005C21.9763 12.8767 22.4227 13.5143 22.7592 14.3473C22.8098 14.4724 22.7631 14.5619 22.6321 14.6135C22.5604 14.6419 22.4804 14.6576 22.4028 14.6635C22.2165 14.6778 22.029 14.679 21.8425 14.6931C21.6885 14.7048 21.5899 14.656 21.5156 14.5162C21.4449 14.3834 21.3402 14.2655 21.2398 14.1494C20.7709 13.6074 19.7595 13.7782 19.3728 14.2815C19.1814 14.5307 19.1986 14.8741 19.4251 15.0977C19.579 15.2495 19.7666 15.353 19.9798 15.4033C20.2166 15.4593 20.4576 15.4989 20.6958 15.5499C21.0182 15.619 21.3443 15.6772 21.6608 15.7662C22.5738 16.0227 23.2815 16.8396 23.3271 17.7056C23.3471 18.0875 23.2689 18.4495 23.0602 18.777C22.847 19.1117 22.5731 19.3939 22.2105 19.5836C21.9404 19.7248 21.6632 19.8539 21.3454 20.0098Z" fill="white"/>
<path d="M41.0294 17.0907C39.9863 13.3824 39.3586 9.56613 38.1853 5.89639C38.0594 5.57233 37.8539 5.52352 37.1133 5.62363C36.5935 5.69389 36.0674 5.77416 35.5519 5.87751C25.5269 7.88895 15.5117 9.94948 5.46462 11.8546C4.22037 12.121 1.26698 10.0799 0.85978 8.91926C-0.615822 4.71315 0.489018 12.9651 0.647292 14.4244C1.36002 17.2555 1.95052 20.1124 2.572 22.963C2.70446 23.5738 2.83701 24.1847 2.96987 24.7955C3.00571 25.0534 3.21562 25.2351 3.486 25.2457C3.95556 25.291 4.63959 25.136 5.16565 25.0391C6.14438 24.8545 7.12352 24.672 8.10196 24.4861C12.6002 23.6203 17.0897 22.714 21.5836 21.8278C21.5834 21.8268 21.5831 21.8256 21.5829 21.8246C26.2979 20.9076 30.9955 19.9126 35.6987 18.9431C37.1686 18.6387 38.6423 18.3396 40.1003 17.9874C40.5707 17.8985 41.2492 17.6158 41.0294 17.0907Z" fill="#2B8958"/>
<path d="M41.7892 16.0568C41.7001 15.6881 41.6102 15.3193 41.5204 14.9506C41.5202 14.9498 41.52 14.9488 41.5197 14.948C41.1823 13.5643 40.8423 12.1812 40.5165 10.7951C39.8762 8.07106 39.2559 5.34297 38.6145 2.61916C38.6022 2.56701 38.5899 2.51477 38.5777 2.46262C38.5657 2.41171 38.5538 2.3608 38.5417 2.30989C38.3961 1.69296 38.2048 1.0848 37.9998 0.481023C37.8456 0.0269294 37.6311 -0.0548703 36.8799 0.0292177C36.5494 0.0662088 36.2168 0.108443 35.886 0.160688C35.6895 0.191768 35.4936 0.226281 35.2994 0.265464C35.2989 0.26556 35.2984 0.265656 35.2979 0.265751C35.0956 0.30646 34.8933 0.347455 34.691 0.388546C34.6532 0.396268 34.6155 0.403895 34.5776 0.411618C34.3805 0.451755 34.1834 0.491892 33.9865 0.53222C33.9571 0.538226 33.9277 0.544233 33.8984 0.550239C32.1807 0.902226 30.4647 1.26194 28.7456 1.60763C25.9445 2.17079 23.1394 2.7166 20.3374 3.27604C18.469 3.649 16.6025 4.03064 14.7362 4.41266C14.0995 4.54299 13.4682 4.69753 12.8306 4.82166C11.4852 5.08355 10.1376 5.33505 8.79021 5.58646C7.67127 5.79525 6.54875 5.98611 5.4323 6.20635C5.26479 6.23943 5.09728 6.2726 4.92987 6.30607C4.92977 6.30607 4.92967 6.30607 4.92957 6.30616C4.67627 6.35679 4.42308 6.40798 4.16998 6.45985C4.15995 6.46195 4.14982 6.46395 4.13979 6.46605C4.02024 6.49055 3.90079 6.51524 3.78134 6.54012C3.76744 6.54298 3.75354 6.54594 3.73964 6.5488C3.61919 6.57387 3.49875 6.59914 3.37841 6.62469C3.37344 6.62573 3.36848 6.62678 3.36351 6.62783C3.24555 6.65281 3.12759 6.67808 3.00973 6.70344C2.99851 6.70582 2.98729 6.7082 2.97607 6.71068C2.86119 6.73547 2.74631 6.76054 2.63152 6.78571C2.61117 6.79019 2.59081 6.79467 2.57046 6.79915C2.45756 6.82404 2.34466 6.84911 2.23186 6.87438C2.21369 6.87848 2.19562 6.88258 2.17745 6.88658C2.05969 6.91308 1.94203 6.93968 1.82446 6.96666C1.60264 7.01757 1.38479 7.08717 1.17052 7.16487C0.95624 7.24257 0.74544 7.32838 0.537718 7.4118C0.404466 7.46528 0.294846 7.5262 0.210148 7.59437C0.202403 7.60056 0.194956 7.60686 0.187708 7.61315C0.151267 7.64471 0.11999 7.67779 0.0940742 7.7123C0.088911 7.71916 0.0838469 7.72613 0.0790808 7.73318C0.0600165 7.7613 0.0443281 7.79029 0.032115 7.82022C0.02298 7.84272 0.0157313 7.8657 0.0104688 7.88915C-0.00184363 7.94397 -0.00333296 8.00165 0.00619922 8.062C0.0155328 8.12111 0.0237743 8.1805 0.03142 8.2399C0.0466119 8.35879 0.0591226 8.47824 0.0711372 8.5978C0.0771941 8.65758 0.0831519 8.71735 0.0893081 8.77703C0.0954643 8.83671 0.101918 8.8964 0.10877 8.95598C0.129522 9.13464 0.154941 9.31245 0.193268 9.48768C0.210148 9.56481 0.227326 9.64194 0.244603 9.71897C0.248873 9.73785 0.253242 9.75672 0.257511 9.7757C0.271115 9.83566 0.284718 9.89554 0.29852 9.9555C0.302392 9.97209 0.306265 9.98878 0.310137 10.0054C0.325031 10.0699 0.340123 10.1344 0.355315 10.1988C0.357599 10.2085 0.359883 10.2182 0.362167 10.2279C0.572669 11.1203 0.802335 12.0091 0.998638 12.9044C1.61565 15.7188 2.22382 18.5348 2.83289 21.3508C2.83299 21.3514 2.83319 21.352 2.83329 21.3527C3.01658 22.2004 3.19998 23.0481 3.38377 23.8957C3.39688 23.956 3.41157 24.0119 3.42855 24.0635C3.43421 24.0807 3.44007 24.0974 3.44613 24.1136C3.4645 24.1624 3.48515 24.2069 3.50848 24.2474C3.53182 24.2879 3.55793 24.3243 3.58722 24.3569C3.59695 24.3678 3.60708 24.3782 3.61751 24.3882C3.62277 24.3932 3.62803 24.3981 3.63349 24.4029C3.64432 24.4125 3.65554 24.4217 3.66715 24.4305C3.70777 24.4611 3.75324 24.4868 3.80418 24.5077C3.82602 24.5166 3.84886 24.5247 3.87279 24.5319C3.89672 24.5391 3.92174 24.5455 3.94786 24.5511C3.98271 24.5585 4.01955 24.5644 4.05847 24.5689C4.0682 24.57 4.07813 24.5711 4.08806 24.572C4.29826 24.592 4.56804 24.5734 4.91647 24.5239C4.95082 24.519 4.98518 24.5129 5.01943 24.5065C5.05369 24.5001 5.08795 24.4933 5.1222 24.4869C5.12369 24.4866 5.12528 24.4863 5.12677 24.486C5.25684 24.4618 5.38702 24.4376 5.51709 24.4136C5.56247 24.4052 5.60775 24.3968 5.65312 24.3884C5.73901 24.3725 5.8248 24.3567 5.91069 24.3408C5.9662 24.3306 6.0217 24.3203 6.07711 24.3101C6.134 24.2996 6.1909 24.2892 6.24779 24.2787C7.03837 24.1331 7.82904 23.9883 8.61912 23.8406H8.61932C9.2128 23.7296 9.80598 23.617 10.3985 23.501C14.3436 22.7288 18.2858 21.942 22.2291 21.1612C22.2288 21.1597 22.2284 21.1582 22.2281 21.1566C23.6187 20.8813 25.0122 20.6173 26.3995 20.3284C29.7575 19.629 33.1145 18.9247 36.4703 18.2165C36.4718 18.2162 36.4732 18.216 36.4746 18.2156C37.0944 18.0848 37.7141 17.954 38.3338 17.8229C38.5494 17.7773 38.7648 17.7304 38.9798 17.6822C39.0874 17.6582 39.1948 17.6338 39.3022 17.6092C39.8392 17.4861 40.3742 17.3561 40.9068 17.2212C40.921 17.2176 40.935 17.214 40.9489 17.2102C40.9524 17.2093 40.956 17.2083 40.9594 17.2075C40.9723 17.204 40.9849 17.2006 40.9974 17.1971C40.9984 17.1968 40.9995 17.1965 41.0005 17.1962C41.014 17.1924 41.0272 17.1886 41.0403 17.1848C41.0432 17.1839 41.0462 17.183 41.0493 17.1821C41.0611 17.1786 41.0728 17.1751 41.0844 17.1714C41.0857 17.171 41.0871 17.1707 41.0884 17.1702C41.1013 17.1662 41.114 17.1621 41.1267 17.158C41.1288 17.1572 41.131 17.1566 41.1332 17.1558C41.1446 17.152 41.1559 17.1482 41.1672 17.1444C41.1684 17.144 41.1695 17.1435 41.1707 17.1431C41.1833 17.1388 41.1955 17.1344 41.2076 17.13C41.2088 17.1295 41.21 17.1291 41.2113 17.1286C41.2227 17.1244 41.2339 17.1201 41.245 17.1159C41.2459 17.1156 41.2467 17.1152 41.2476 17.1149C41.2596 17.1102 41.2715 17.1055 41.2831 17.1007C41.2832 17.1006 41.2834 17.1006 41.2835 17.1005C41.2951 17.0957 41.3064 17.091 41.3174 17.0862C41.318 17.0859 41.3185 17.0857 41.3191 17.0854C41.3418 17.0755 41.3637 17.0654 41.3847 17.0551C41.385 17.055 41.3853 17.0548 41.3855 17.0547C41.4068 17.0443 41.4272 17.0337 41.4468 17.0228C41.4469 17.0227 41.447 17.0227 41.4471 17.0226C41.7399 16.8602 41.8546 16.6453 41.8418 16.3477C41.8373 16.2491 41.8124 16.1527 41.7892 16.0568Z" fill="#66CC99"/>
<path d="M36.0443 15.3167C36.176 14.8731 36.4018 14.4821 36.7276 14.1431C37.0505 13.807 37.4332 13.5511 37.8813 13.4029C38.1837 13.3029 38.4992 13.2331 38.8136 13.1739C38.8773 13.1619 38.9408 13.153 39.0045 13.1465C38.8112 12.3612 38.6188 11.5757 38.4327 10.789C37.9468 8.73625 37.4757 6.68049 36.9917 4.62739C36.7465 4.68097 36.498 4.7192 36.2446 4.72835C35.6545 4.74971 35.1108 4.59926 34.5964 4.32736C34.0554 4.04144 33.6085 3.65904 33.2828 3.15566C33.1088 2.8868 32.9813 2.6109 32.9016 2.32812C31.2885 2.65704 29.6771 2.99396 28.0629 3.31821C25.5569 3.8215 23.0475 4.31039 20.5406 4.81053C18.8691 5.14402 17.1992 5.48457 15.5293 5.82559C14.9597 5.9419 14.3945 6.07824 13.824 6.1894C12.6205 6.42403 11.4152 6.64998 10.2099 6.87593C9.20907 7.06355 8.20531 7.23631 7.20651 7.43337C6.58345 7.55626 5.96058 7.6822 5.3393 7.81319C5.36253 7.97527 5.37077 8.14116 5.36432 8.31038C5.35717 8.49905 5.33493 8.68725 5.31954 8.87564C5.19929 9.40867 5.03248 9.92073 4.68962 10.3641C4.34964 10.8038 3.91086 11.1149 3.35978 11.2662C3.16388 11.32 2.96638 11.3684 2.7666 11.4046C2.90105 11.9514 3.03817 12.4978 3.15891 13.0474C3.66302 15.3429 4.15939 17.6398 4.65646 19.9367C4.69796 19.9285 4.73956 19.9205 4.78107 19.9127C5.20426 19.8331 5.62636 19.8824 6.04279 19.9759C6.1971 20.0105 6.34951 20.0529 6.50292 20.0912C6.77498 20.1592 7.03057 20.2623 7.25427 20.428C7.33867 20.4904 7.42039 20.5591 7.49089 20.6355C7.67816 20.8384 7.88241 21.0321 8.03681 21.2568C8.25347 21.5722 8.3888 21.9135 8.44858 22.2742C9.43129 22.0923 10.4138 21.9096 11.3943 21.7175C14.9236 21.0261 18.4503 20.3228 21.9781 19.6242C21.9778 19.623 21.9776 19.6217 21.9773 19.6205C23.2214 19.3741 24.4678 19.1372 25.7092 18.8797C29.1373 18.1684 32.5641 17.4517 35.9899 16.7311C35.8835 16.2774 35.8992 15.8059 36.0443 15.3167Z" fill="#339966"/>
<path d="M10.8673 14.8023C10.8069 15.0701 10.7231 15.3274 10.5508 15.5501C10.3801 15.771 10.1596 15.9272 9.88279 16.0032C9.69443 16.055 9.50329 16.0969 9.3061 16.1041C9.0096 16.1148 8.73655 16.0393 8.47809 15.9026C8.20632 15.759 7.98182 15.5669 7.81818 15.314C7.57978 14.9455 7.51434 14.5511 7.63925 14.1306C7.70538 13.9077 7.81878 13.7113 7.98251 13.541C8.14476 13.3722 8.33699 13.2437 8.56209 13.1692C8.71401 13.119 8.87248 13.0839 9.03046 13.0542C9.24304 13.0142 9.45514 13.039 9.66435 13.086C9.7419 13.1034 9.81845 13.1246 9.8955 13.1438C10.0321 13.178 10.1606 13.2298 10.273 13.3131C10.3154 13.3444 10.3564 13.3789 10.3919 13.4173C10.4859 13.5193 10.5886 13.6165 10.6661 13.7294C10.8292 13.9668 10.9008 14.2334 10.8898 14.5182C10.8863 14.6132 10.875 14.7078 10.8673 14.8023Z" fill="#66CC99"/>
<path d="M34.1349 10.1959C34.0745 10.4637 33.9907 10.7209 33.8184 10.9436C33.6476 11.1645 33.4272 11.3208 33.1504 11.3968C32.962 11.4485 32.7709 11.4905 32.5737 11.4976C32.2772 11.5083 32.0041 11.4328 31.7457 11.2962C31.4739 11.1525 31.2494 10.9605 31.0858 10.7076C30.8474 10.3391 30.7819 9.94468 30.9068 9.52414C30.973 9.30124 31.0864 9.10485 31.2501 8.93458C31.4123 8.76573 31.6046 8.63722 31.8297 8.56276C31.9816 8.51251 32.1401 8.47743 32.298 8.44778C32.5106 8.40774 32.7227 8.43253 32.9319 8.47953C33.0095 8.49697 33.086 8.51814 33.1631 8.5374C33.2997 8.57153 33.4282 8.62339 33.5406 8.70662C33.583 8.73799 33.624 8.7725 33.6594 8.81083C33.7535 8.91284 33.8562 9.01008 33.9337 9.12296C34.0967 9.36035 34.1683 9.62692 34.1574 9.91179C34.1537 10.0067 34.1426 10.1013 34.1349 10.1959Z" fill="#66CC99"/>
<path d="M27.3405 13.2514C27.1513 14.3339 26.6774 15.375 25.914 16.2373C24.0618 18.3298 20.7935 19.0608 18.182 17.9225C18.1069 17.8894 18.0322 17.8552 17.9581 17.8198C14.0687 15.9461 12.8063 10.5932 16.2581 7.72526C18.4985 5.86389 22.195 5.5161 24.6976 7.08784C26.8488 8.43896 27.7443 10.9396 27.3405 13.2514Z" fill="#66CC99"/>
<path d="M22.2205 15.777C22.2656 15.9871 22.3176 16.2227 22.3665 16.4589C22.4067 16.6528 22.3876 16.6901 22.1825 16.7305C21.9078 16.7846 21.6306 16.8277 21.3533 16.8689C21.1885 16.8934 21.1362 16.8548 21.0988 16.6921C21.0493 16.4771 21.0053 16.261 20.9565 16.0334C20.8556 16.03 20.7715 16.0252 20.6874 16.0247C20.0229 16.0204 19.4764 15.7653 19.0247 15.3067C18.8278 15.1069 18.7234 14.8542 18.5981 14.6144C18.5348 14.4932 18.5722 14.4083 18.6988 14.3372C18.7599 14.303 18.8287 14.2757 18.8977 14.2612C19.1647 14.2053 19.4335 14.1571 19.701 14.1034C19.8256 14.0784 19.9009 14.127 19.9664 14.228C20.0648 14.3797 20.171 14.5282 20.2878 14.6671C20.5024 14.922 20.801 14.9905 21.1224 14.962C21.4808 14.9303 21.8231 14.812 22.0913 14.5893C22.733 14.0566 22.6572 13.3508 21.9664 12.9101C21.6699 12.7209 21.3144 12.6643 20.9638 12.6132C20.3312 12.5209 19.6952 12.4364 19.0932 12.2171C18.8735 12.137 18.6589 12.03 18.4637 11.9043C18.019 11.618 17.8355 11.1942 17.8595 10.6915C17.8979 9.8893 18.3043 9.30993 19.048 8.94689C19.1438 8.90017 19.243 8.85994 19.3614 8.80741C19.3431 8.70339 19.3264 8.59671 19.3053 8.49079C19.2797 8.36189 19.2492 8.23386 19.223 8.10505C19.1941 7.9631 19.2184 7.89998 19.354 7.86757C19.6465 7.7975 19.9427 7.74125 20.2382 7.6828C20.3551 7.65973 20.4353 7.71732 20.4762 7.81685C20.5209 7.92572 20.559 8.03775 20.5896 8.15101C20.6236 8.27714 20.646 8.40623 20.6751 8.54142C20.7823 8.54942 20.8662 8.55676 20.9504 8.56191C21.9473 8.62264 22.4709 9.20373 22.91 9.99141C22.976 10.1098 22.9409 10.204 22.8174 10.2706C22.7499 10.307 22.6724 10.3319 22.5961 10.3468C22.4129 10.3827 22.2269 10.4057 22.0436 10.4413C21.8922 10.4707 21.7881 10.4338 21.6967 10.3037C21.6098 10.1802 21.4911 10.0752 21.3768 9.97177C20.8429 9.48831 19.8605 9.77537 19.5401 10.3198C19.3815 10.5895 19.442 10.9284 19.695 11.1239C19.8669 11.2568 20.0662 11.3377 20.2841 11.3629C20.5263 11.391 20.7705 11.4023 21.0134 11.4252C21.3421 11.4562 21.6732 11.4761 21.9986 11.5276C22.9372 11.6761 23.7426 12.4047 23.897 13.259C23.9652 13.6358 23.9331 14.0042 23.7673 14.3536C23.5978 14.7105 23.3616 15.0226 23.0255 15.253C22.7752 15.4249 22.5163 15.5852 22.2205 15.777Z" fill="#66CC99"/>
</svg>
